<svg width="16" height="16" viewBox="0 0 16 16" fill="none" xmlns="http://www.w3.org/2000/svg">
<path d="M9.98895 6.29999C9.36018 6.29999 9.33398 5.69814 9.39947 5.39721C9.39947 5.27684 9.49289 5 9.96447 5C10.4361 5 10.5784 5.27684 10.5784 5.39721" stroke="#F2C311" stroke-width="0.3"/>
<path d="M5.64302 4.26666H8.00091H10.1623C11.5771 4.26666 11.9307 5.5766 11.9307 6.23157V10.1614C11.9307 10.9474 11.2103 11.7333 10.1623 11.7333H5.64302C4.54267 11.7333 4.26758 10.6854 4.26758 10.1614V6.23157C4.26758 4.65965 5.18454 4.26666 5.64302 4.26666Z" fill="#F2C311" fill-opacity="0.34" stroke="#F2C311" stroke-width="0.5"/>
<path d="M4.46289 7.01753H6.82079C7.21377 6.55905 8.19622 6.03509 9.37517 7.01753C10.7899 7.01753 11.7331 7.01755 11.7331 7.01755" stroke="#F2C311" stroke-width="0.5"/>
<path d="M6.82131 7.01758C6.23182 7.60705 6.23183 9.76846 8.00025 9.76846C9.76867 9.76846 9.76867 7.80354 9.37569 7.01758" stroke="#F2C311" stroke-width="0.5"/>
<path d="M9.98828 6.30004C10.1848 6.30004 10.5778 6.19171 10.5778 5.75837C10.5778 5.32504 10.5778 5.33708 10.5778 5.39726" stroke="#F2C311" stroke-width="0.3"/>
<rect x="0.5" y="0.5" width="15" height="15" stroke="#F2C311"/>
</svg>
