<svg width="16" height="16" viewBox="0 0 16 16" fill="none" xmlns="http://www.w3.org/2000/svg">
<path d="M7.24805 13.2119C6.40495 13.2119 5.68555 13.028 5.08984 12.6602C4.4974 12.2923 4.05143 11.7682 3.75195 11.0879C3.45573 10.4108 3.32715 9.60352 3.36621 8.66602C3.40853 7.74154 3.6071 6.93262 3.96191 6.23926C4.31999 5.5459 4.8099 5.00716 5.43164 4.62305C6.05339 4.23893 6.77767 4.04688 7.60449 4.04688C8.43457 4.04688 9.1377 4.22754 9.71387 4.58887C10.2933 4.9502 10.7262 5.46289 11.0127 6.12695C11.3024 6.79102 11.431 7.57878 11.3984 8.49023C11.3789 8.96875 11.2829 9.40658 11.1104 9.80371C10.9378 10.1976 10.6888 10.5133 10.3633 10.751C10.0378 10.9854 9.63411 11.1025 9.15234 11.1025C8.87891 11.1025 8.64941 11.0326 8.46387 10.8926C8.27832 10.7526 8.14811 10.5573 8.07324 10.3066C7.77051 10.8307 7.32454 11.0928 6.73535 11.0928C6.2959 11.0928 5.95736 10.8975 5.71973 10.5068C5.48535 10.1162 5.39909 9.59538 5.46094 8.94434C5.51302 8.39746 5.63021 7.91895 5.8125 7.50879C5.99479 7.09863 6.23568 6.77962 6.53516 6.55176C6.83464 6.32389 7.1862 6.20996 7.58984 6.20996C7.90885 6.20996 8.17741 6.25228 8.39551 6.33691C8.61686 6.41829 8.86263 6.5485 9.13281 6.72754L9.14258 6.74707L8.89355 9.56934C8.87728 9.78743 8.88542 9.95996 8.91797 10.0869C8.95052 10.2139 9.00423 10.3034 9.0791 10.3555C9.15397 10.4076 9.24349 10.4336 9.34766 10.4336C9.71224 10.4336 10.0085 10.2529 10.2363 9.8916C10.4674 9.52702 10.596 9.0599 10.6221 8.49023C10.6742 7.31185 10.4447 6.39225 9.93359 5.73145C9.42578 5.06738 8.6429 4.73535 7.58496 4.73535C6.92415 4.73535 6.34798 4.89811 5.85645 5.22363C5.36491 5.54915 4.97917 6.00814 4.69922 6.60059C4.41927 7.18978 4.26302 7.87826 4.23047 8.66602C4.19141 9.45703 4.28581 10.139 4.51367 10.7119C4.74479 11.2816 5.0931 11.721 5.55859 12.0303C6.02734 12.3428 6.59701 12.499 7.26758 12.499C7.54753 12.499 7.83398 12.4648 8.12695 12.3965C8.42318 12.3314 8.67383 12.2467 8.87891 12.1426L9.06934 12.7773C8.84798 12.9141 8.56803 13.0199 8.22949 13.0947C7.89421 13.1729 7.56706 13.2119 7.24805 13.2119ZM7.0625 10.292C7.24154 10.292 7.40918 10.2513 7.56543 10.1699C7.72493 10.0853 7.86816 9.93392 7.99512 9.71582C7.99512 9.68652 7.99512 9.6556 7.99512 9.62305C7.99837 9.58724 8.00326 9.54329 8.00977 9.49121L8.22461 7.07422C8.14648 7.04167 8.0651 7.01562 7.98047 6.99609C7.89909 6.97656 7.81283 6.9668 7.72168 6.9668C7.34082 6.9668 7.05111 7.13281 6.85254 7.46484C6.65397 7.79362 6.52214 8.29492 6.45703 8.96875C6.42448 9.40169 6.45866 9.73047 6.55957 9.95508C6.66048 10.1797 6.82812 10.292 7.0625 10.292Z" fill="#F2C311"/>
<rect x="0.5" y="0.5" width="15" height="15" stroke="#F2C311"/>
</svg>
