<svg width="16" height="16" viewBox="0 0 16 16" fill="none" xmlns="http://www.w3.org/2000/svg">
<path d="M11.5318 5.4551C11.4393 5.75219 11.2975 5.92717 10.899 6.25287C11.2301 6.21501 11.4129 6.16644 11.7342 6.03529C11.5069 6.35228 11.3475 6.51553 11.0002 6.78471C11.0002 7.48578 10.8112 8.3105 10.5067 8.85165C8.88452 11.6804 6.17166 11.5611 4.26758 10.5318C5.2175 10.5793 5.70319 10.4434 6.49492 9.92743C5.67822 9.75435 5.35881 9.53477 5.07752 8.88791C5.35775 8.92623 5.50763 8.92183 5.76091 8.86374C4.95431 8.53651 4.57362 8.23817 4.52069 7.38908C4.7989 7.5355 4.94697 7.56179 5.20408 7.5583C4.52422 6.96084 4.3613 6.55316 4.74848 5.60015C5.70585 6.6064 6.38435 6.97265 7.93763 7.14733C7.92419 6.5044 7.84778 6.01262 8.78554 5.47927C9.26182 5.29052 9.53842 5.28738 10.0637 5.4551C10.2632 5.53757 10.3742 5.606 10.57 5.79355C10.9743 5.71057 11.1865 5.63852 11.5318 5.4551Z" fill="#F2C311" stroke="#F2C311" stroke-width="0.5"/>
<rect x="0.5" y="0.5" width="15" height="15" stroke="#F2C311"/>
</svg>
